<?xml version="1.0" encoding="utf-8"?>
<!-- Generator: Adobe Illustrator 27.5.0, SVG Export Plug-In . SVG Version: 6.00 Build 0)  -->
<svg version="1.1" xmlns="http://www.w3.org/2000/svg" xmlns:xlink="http://www.w3.org/1999/xlink" x="0px" y="0px"
	 viewBox="0 0 500 500" style="enable-background:new 0 0 500 500;" xml:space="preserve">
<g id="BACKGROUND">
	<rect style="fill:#FFFFFF;" width="500" height="500"/>
</g>
<g id="OBJECTS">
	<g>
		<g>
			<g>
				<g>
					<path style="fill:#4F4CC1;" d="M241.37,260.473l-6.902,33.131c-0.192,1.072-0.383,2.144-0.383,3.021
						c0,2.144,0.958,3.703,4.793,3.703c3.834,0,8.818-5.457,12.653-8.575h3.259c-4.41,4.482-15.242,17.442-22.719,17.442
						c-6.231,0-10.45-2.339-11.695-7.406c-2.876,3.995-7.189,7.99-13.037,7.99c-9.203,0-11.887-6.626-11.887-12.376
						c0-16.76,5.944-36.834,25.115-36.834c2.301,0,4.698,0.974,6.423,2.436l0.575-2.534H241.37z M208.394,294.773
						c0,5.847,3.163,6.919,5.559,6.919c2.205,0,4.314-2.144,6.135-4.872c0.096-0.975,0.288-2.046,0.576-3.216l5.368-25.823
						c-1.534-1.364-3.354-1.754-4.697-1.754C214.146,266.027,208.394,281.521,208.394,294.773z"/>
					<path style="fill:#4F4CC1;" d="M306.936,293.604c-0.288,1.169-0.479,2.436-0.479,3.605c0,2.241,0.863,3.995,3.93,3.995
						c3.835,0,7.861-5.749,10.065-9.939h4.506c-4.41,5.262-13.038,17.93-20.514,17.93c-7.477,0-11.887-3.313-11.887-10.622
						c0-1.559,0.192-3.118,0.575-4.969l3.642-17.54c0.193-0.877,0.288-1.754,0.288-2.533c0-3.508-1.821-5.749-4.41-5.749
						c-2.109,0-3.739,0.585-5.559,1.754c0.287,1.169,0.478,2.241,0.478,3.41c0,0.682-0.095,1.364-0.192,2.046l-7.093,34.203h-13.9
						l6.903-33.131c0.192-0.877,0.287-1.754,0.287-2.533c0-3.508-1.821-5.749-4.41-5.749c-2.3,0-3.93,0.682-5.847,2.046
						l-8.244,39.368h-13.804l10.161-48.722h13.804l-1.054,5.165c3.835-2.826,8.245-5.165,12.367-5.165
						c3.547,0,7.381,2.631,9.491,6.432c4.217-3.411,9.298-6.432,13.996-6.432c5.272,0,11.023,5.652,11.023,12.278
						c0,0.779-0.095,1.462-0.192,2.241L306.936,293.604z"/>
					<path style="fill:#4F4CC1;" d="M336.649,260.473l-6.902,33.131c-0.192,1.072-0.383,2.144-0.383,3.021
						c0,2.144,0.959,3.703,4.793,3.703c3.835,0,8.819-5.457,12.654-8.575h3.259c-4.41,4.482-15.242,17.442-22.72,17.442
						c-7.381,0-11.982-3.313-11.982-10.622c0-1.462,0.192-3.118,0.576-4.969l6.901-33.131H336.649z M332.24,239.815
						c4.218,0,7.669,3.508,7.669,7.795c0,4.288-3.451,7.698-7.669,7.698s-7.573-3.41-7.573-7.698
						C324.667,243.323,328.022,239.815,332.24,239.815z"/>
					<path style="fill:#4F4CC1;" d="M367.325,240.984l-11.024,52.62c-0.288,1.462-0.479,2.339-0.479,3.118
						c0,2.144,1.054,3.605,4.793,3.605c3.835,0,8.819-5.457,12.654-8.575h3.259c-4.41,4.482-15.242,17.442-22.72,17.442
						c-7.381,0-11.886-3.313-11.886-10.622c0-1.462,0.192-3.118,0.575-4.969l10.64-50.671L367.325,240.984z"/>
					<path style="fill:#4F4CC1;" d="M415.925,260.473l-8.915,42.681l-0.959,4.482l-1.917,9.354
						c-2.876,13.935-10.928,16.566-17.255,16.566c-5.848,0-11.312-4.19-11.312-10.524c0-8.965,7.382-11.888,16.488-14.617
						l1.342-6.626c-4.313,3.995-9.011,7.406-12.846,7.406c-7.381,0-11.982-3.313-11.982-10.622c0-1.462,0.192-3.118,0.575-4.969
						l6.902-33.131h13.804l-6.901,33.131c-0.193,1.072-0.384,2.144-0.384,3.021c0,2.144,0.959,3.703,4.793,3.703
						c2.11,0,4.698-1.656,7.19-3.8l7.573-36.054H415.925z M384.674,324.884c1.917,0,4.41-1.851,5.559-7.601l1.151-5.652
						c-6.039,2.046-10.545,4.775-10.545,10.037C380.839,323.032,382.565,324.884,384.674,324.884z"/>
				</g>
				<path style="fill:#423999;" d="M444.423,277.991c-1.144-3.311-2.523-6.518-4.31-9.482c-1.769-2.957-3.817-5.778-6.363-8.036
					c1.837,2.843,3.154,5.913,4.238,9.023c1.038,3.129,1.872,6.296,2.339,9.504c0.985,6.398,0.827,12.843-0.572,18.911
					c-1.364,6.081-4.022,11.736-7.567,16.781c-3.544,5.059-8.011,9.484-12.938,13.411c-4.957,3.901-10.391,7.308-16.115,10.252
					c-2.85,1.469-5.825,2.845-8.759,4.082c-2.873,1.239-5.895,2.221-8.935,3.14c-12.255,3.517-25.31,5.017-38.398,5.426
					c-13.11,0.368-26.327-0.168-39.504-1.429c-13.179-1.26-26.34-3.081-39.422-5.434c-26.172-4.661-52.088-11.121-77.46-19.204
					c-7.04-2.258-14.031-4.66-20.971-7.191c0.56-1.637,0.882-2.745,1.548-5.163c0.324-1.159,0.86-3.894,1.298-6.065l0.515-2.439l0,0
					v0l6.014-28.498h14.379l1.918-7.211h-14.763l3.94-19.02c8.157,1.091,16.372,1.897,24.576,2.464
					c10.677,0.694,21.385,0.979,32.092,0.678c10.703-0.281,21.412-1.115,32.02-2.739c10.608-1.562,21.137-3.925,31.291-7.443
					c10.149-3.465,19.928-8.252,28.475-14.643l3.635-3.349l-4.176,2.541c-9.149,5.248-18.995,8.979-29.117,11.543
					c-5.048,1.327-10.166,2.38-15.326,3.182c-5.151,0.838-10.328,1.527-15.534,1.975c-20.82,1.818-41.824,1.3-62.667-0.571
					c-10.436-0.935-20.79-2.27-31.143-3.959c-5.284-0.838-10.59-1.638-15.985-2.166c-5.397-0.53-10.848-0.921-16.553-0.67
					c-2.861,0.141-5.788,0.473-8.867,1.329c-1.537,0.423-3.127,1.048-4.689,1.955c-1.559,0.902-3.116,2.157-4.331,3.765
					c-1.227,1.599-2.002,3.493-2.396,5.273c-0.114,0.452-0.181,0.89-0.239,1.326c-0.072,0.442-0.109,0.87-0.132,1.291
					c-0.066,0.882-0.066,1.608,0.006,2.525c0.092,1.812,0.605,3.634,1.335,5.296c0.776,1.654,1.857,3.064,3.016,4.28
					c2.375,2.361,5.095,3.873,7.784,4.968c2.709,1.088,5.439,1.801,8.167,2.277c2.73,0.474,5.453,0.736,8.17,0.807
					c2.712,0.084,5.425-0.02,8.104-0.365c-5.181-1.452-10.228-3.015-14.946-5.011c-2.355-0.986-4.613-2.105-6.637-3.386
					c-2.046-1.246-3.776-2.765-4.977-4.315c-0.563-0.793-0.962-1.6-1.24-2.379c-0.212-0.802-0.365-1.58-0.295-2.423
					c0.039-0.93,0.175-1.979,0.425-2.727c0.247-0.783,0.596-1.345,1.009-1.825c0.786-0.955,2.344-1.712,4.38-2.261
					c2.031-0.534,4.4-0.769,6.817-0.903c4.874-0.223,10.013,0.116,15.141,0.622c3.143,0.319,6.302,0.713,9.465,1.139l-10.241,48.531
					l-0.016-0.003c-0.014,0.098-0.037,0.225-0.053,0.332l-2.002,9.488c-0.597,2.38-1.275,4.736-2.008,7.07
					c-1.248-0.494-2.503-0.971-3.747-1.476c-12.303-4.999-24.397-10.506-35.934-16.848l-4.43-2.475
					c-1.596-0.853-3.227-1.645-4.889-2.369c-3.322-1.452-6.781-2.618-10.333-3.459c-7.103-1.618-14.639-2.003-22.038-0.263
					c-3.685,0.882-7.321,2.334-10.624,4.512c-3.296,2.165-6.206,5.133-8.239,8.633c-2.017,3.508-3.18,7.442-3.508,11.311
					c-0.347,3.877,0.015,7.683,0.79,11.295c0.753,3.592,1.975,7.223,3.678,10.554c1.701,3.344,3.812,6.471,6.26,9.271
					c4.897,5.624,10.999,9.918,17.46,13.139c6.48,3.225,13.374,5.402,20.425,6.694c7.059,1.262,14.293,1.683,21.635,0.845
					c7.388-0.854,14.755-3.21,21.281-7.453c3.248-2.11,6.21-4.684,8.777-7.54c2.568-2.859,5.658-6.772,7.503-9.981
					c2.17-3.768,3.717-6.836,5.093-10.001c7.092,2.656,14.23,5.176,21.415,7.546c25.732,8.485,51.98,15.381,78.659,20.387
					c13.347,2.451,26.797,4.475,40.366,5.731c13.564,1.237,27.24,1.9,40.982,1.313c6.868-0.276,13.753-0.864,20.624-1.859
					c3.436-0.478,6.865-1.116,10.286-1.831c3.414-0.769,6.818-1.636,10.19-2.698c3.365-1.087,6.72-2.254,9.991-3.735
					c3.225-1.437,6.321-2.945,9.41-4.611c6.138-3.342,12.123-7.133,17.559-11.753c2.724-2.296,5.313-4.789,7.686-7.5
					c1.196-1.345,2.325-2.76,3.416-4.201c1.054-1.474,2.086-2.964,3.013-4.53c3.779-6.202,6.282-13.259,7.077-20.449
					C447.505,291.871,446.653,284.629,444.423,277.991z M149.387,332.08c-2.842,5.309-6.509,9.812-11.198,13.044
					c-4.656,3.227-10.333,5.349-16.248,6.213c-5.987,0.889-12.319,0.758-18.504-0.149c-6.19-0.926-12.289-2.644-17.926-5.228
					c-5.622-2.592-10.798-6.069-14.864-10.483c-4.099-4.398-6.935-9.73-8.236-15.62c-1.378-5.853-1.202-11.881,1.502-16.528
					c2.627-4.683,7.767-7.73,13.499-8.861c5.746-1.191,11.981-0.698,17.886,0.879c2.966,0.773,5.884,1.798,8.692,3.088
					c1.405,0.642,2.786,1.342,4.139,2.094l4.337,2.487c11.955,6.7,24.308,12.44,36.844,17.657c1.433,0.595,2.876,1.159,4.314,1.741
					C152.365,325.813,151.01,329.074,149.387,332.08z"/>
				<path style="fill:#4F4CC1;" d="M426.02,295.376c-0.9-0.801-2.283-0.748-3.095,0.141c-0.378,0.414-0.773,0.806-1.188,1.174
					c-2.08,1.867-4.821,3.354-7.53,4.702c-5.511,2.64-11.513,4.643-17.482,6.291l0.603,3.022c3.239-0.519,6.358-1.238,9.481-2.134
					c3.114-0.894,6.187-1.979,9.194-3.319c1.506-0.666,2.99-1.406,4.433-2.265c0.724-0.424,1.446-0.852,2.141-1.354l1.052-0.728
					l1.019-0.875c0.528-0.457,1.025-0.94,1.493-1.444C427.002,297.66,426.965,296.218,426.02,295.376L426.02,295.376z"/>
			</g>
			
				<text transform="matrix(1 0 0 1 221.751 326.9121)" style="fill:#FF6B06; font-family:'Montserrat-Bold'; font-size:12.8542px; letter-spacing:4;">SUPERMARKET</text>
		</g>
		<g>
			<g>
				<g>
					<path style="fill:#F49600;" d="M220.5,238.384c-0.594,0-1.196-0.139-1.759-0.431c-1.87-0.974-2.598-3.278-1.625-5.148
						c1.419-2.729,35.058-66.955,61.116-79.071c12.088-5.621,24.829-3.519,33.254,5.484c10.17,10.874,11.252,27.905,2.753,43.391
						c-1.014,1.851-3.336,2.521-5.184,1.511c-1.848-1.015-2.523-3.335-1.509-5.184c8.361-15.236,4.344-28.109-1.636-34.502
						c-6.187-6.611-15.33-8.023-24.46-3.777c-23.715,11.026-57.226,75.025-57.561,75.671
						C223.21,237.636,221.878,238.384,220.5,238.384z"/>
				</g>
				<g>
					<path style="fill:#32B3D6;" d="M258.629,162.307l-18.233,16.709l4.584,5.659c5.085-6.997,10.492-13.731,15.927-19.354
						C258.629,162.307,258.629,162.307,258.629,162.307z"/>
					<path style="fill:#32B3D6;" d="M271.38,217.262c0,0,18.134-0.646,27.105-4.464c-8.463-9.622-21.846-26.848-31.057-38.9
						c-5.148,5.506-10.425,12.254-15.476,19.382L271.38,217.262z"/>
				</g>
				<g>
					<path style="fill:#F49600;" d="M286.489,160.47c-1.455,0.373-2.924,0.889-4.394,1.573c-0.902,0.419-1.828,0.95-2.766,1.532
						c5.252,6.946,7.854,17.766,4.352,28.989l5.602,6.873C295.67,184.877,293.006,170.166,286.489,160.47z"/>
					<path style="fill:#F49600;" d="M278.248,152.07c-7.422-5.024-16.451-5.793-25.068-1.787
						c-26.057,12.116-59.696,76.342-61.115,79.071c-0.973,1.87-0.245,4.176,1.625,5.148c0.563,0.292,1.165,0.432,1.759,0.432
						c1.379,0,2.71-0.75,3.39-2.058c0.336-0.644,33.834-64.638,57.561-75.669c4.842-2.252,9.764-2.386,14.211-0.584
						c2.363-1.76,4.697-3.213,6.977-4.273C277.808,152.248,278.028,152.167,278.248,152.07z"/>
					<g>
						<path style="fill:#70C9E8;" d="M222.197,160.47l-23.447,22.36c6.397,6.457,7.569,13.592,6.969,19.673
							c6.662-10.752,14.946-23.063,23.613-33.367L222.197,160.47z"/>
						<g>
							<path style="fill:#70C9E8;" d="M268.899,217.189l-18.206-22.111c-4.948,7.093-9.648,14.464-13.749,21.262
								C254.892,217.629,268.899,217.189,268.899,217.189z"/>
							<path style="fill:#70C9E8;" d="M236.18,177.453c-9.087,11.135-17.925,24.866-24.571,35.963
								c4.529,0.756,9.085,1.365,13.544,1.857c4.894-8.34,11.342-18.734,18.496-28.75L236.18,177.453z"/>
						</g>
					</g>
				</g>
				<g>
					<path style="fill:#F49600;" d="M199.071,213.408c-10.294-1.195-20.62-2.576-31.199-3.11c-5.294-0.206-10.627-0.32-16.074,0.178
						c-5.42,0.483-11.031,1.497-16.351,4.193c-2.471,1.342-4.848,2.798-7.044,4.572c-2.235,1.699-4.237,3.727-6.011,5.905
						c-3.525,4.397-6.013,9.551-7.261,14.881c-1.242,5.34-1.457,10.78-0.872,16.051c0.589,5.267,1.812,10.427,3.843,15.23
						c-1.058-5.087-1.474-10.252-1.32-15.329c0.177-5.07,0.928-10.087,2.641-14.689c1.608-4.627,4.153-8.809,7.46-12.202
						c3.312-3.378,7.301-6.09,11.668-8.009c4.1-1.718,8.913-2.349,13.788-2.614c4.895-0.249,9.943,0.059,14.983,0.467
						c8.915,0.706,17.926,1.872,26.971,3.079c1.319-2.385,2.963-5.302,4.874-8.589C199.136,213.416,199.103,213.412,199.071,213.408
						z"/>
					<g>
						<path style="fill:#F49600;" d="M210.728,214.893c-1.865,3.14-3.539,6.038-4.974,8.569c4.602,0.552,9.224,1.065,13.862,1.508
							c1.319-2.378,2.939-5.245,4.808-8.453C219.864,216.006,215.301,215.467,210.728,214.893z"/>
						<path style="fill:#F49600;" d="M283.129,217.625c-2.537,0.242-5.035,0.646-7.583,0.752c-2.537,0.16-5.061,0.38-7.607,0.43
							c-2.535,0.131-5.081,0.136-7.625,0.124c-5.087-0.018-10.182-0.271-15.275-0.51c-2.975-0.198-5.949-0.433-8.924-0.696
							c-1.714,2.864-3.313,5.608-4.775,8.173c9.681,0.61,19.419,0.788,29.189,0.18c10.527-0.651,21.073-2.233,31.207-5.309
							c10.078-3.185,19.77-7.785,27.937-14.269c-9.267,4.757-19.026,8.027-29.023,9.904
							C288.148,216.855,285.639,217.268,283.129,217.625z"/>
					</g>
				</g>
			</g>
			<g>
				<path style="fill:#FFD400;" d="M183.193,178.249c-11.702,0-21.188,9.486-21.188,21.188c0,3.39,0.817,6.583,2.232,9.425
					c2.325,0.012,4.639,0.073,6.942,0.163c9.87,0.498,19.519,1.731,29.129,2.865c2.55-3.498,4.072-7.793,4.072-12.453
					C204.381,187.735,194.895,178.249,183.193,178.249z M188.442,192.756c-12.313,2.184-17.847-5.845-13.743-9.269
					c-0.191,2.875,2.299,6.679,9.843,6.979c6.414,0.254,11.441-1.845,9.245-6.979C193.787,183.487,198.845,190.911,188.442,192.756z
					"/>
				<path style="fill:#86C11F;" d="M183.957,183.594c0,0,1.983-20.042,21.798-20.997C201.9,177.104,197.7,181.494,183.957,183.594z"
					/>
			</g>
			<g>
				<path style="fill:#86C11F;" d="M131.082,163.617c0,0-6.576-11.502-5.89-19.32c0.687-7.818,7.281-5.572,7.977-2.749
					c0.696,2.823-2.3,3.394-2.3,3.394s3.246-0.916,3.768,1.201c0.522,2.117-3.021,3.662-4.279,2.487
					c3.535,2.614-0.225,5.476-2.175,3.221c0.494,4.047,4.525,11.288,4.525,11.288L131.082,163.617z"/>
				<path style="fill:#86C11F;" d="M130.131,164.25c0.474-0.302,0.988-0.537,1.532-0.691c-2.008-3.984-5.334-9.572-9.294-12.229
					c-6.517-4.373-8.908,2.17-7.147,4.484c1.514,1.99,3.442,0.811,3.953,0.441c-0.53,0.418-2.442,2.082-1.298,3.586
					c1.32,1.735,4.747-0.053,4.622-1.769c-0.185,4.393,4.404,3.263,3.872,0.329C127.679,159.748,129.04,162.101,130.131,164.25z"/>
				<path style="fill:#FF6B06;" d="M161.815,192.899c-5.496-13.363-13.227-30.033-17.879-33.654
					c-6.612-5.147-23.924-0.164-22.906,12.625c0.813,10.214,19.697,30.3,27.153,37.86c2.15-0.461,10.286-0.878,14.63-0.751
					C160.938,205.823,159.715,199.533,161.815,192.899z M155.62,187.35l-0.526-1.004c-0.412-0.079-1.074,0.001-1.605,0.201
					c-0.571,0.204-1.111,0.548-1.598,0.972c-0.501,0.414-0.907,0.945-1.304,1.487c-0.374,0.56-0.697,1.159-0.994,1.779
					c0.177-0.662,0.385-1.32,0.66-1.964c0.3-0.628,0.621-1.267,1.083-1.827c0.448-0.566,0.993-1.088,1.653-1.478
					c0.434-0.242,0.874-0.439,1.377-0.559l-1.021-1.949c-0.592-0.06-1.322,0-1.972,0.18c-0.733,0.196-1.439,0.527-2.096,0.957
					c-0.638,0.454-1.24,0.988-1.754,1.614c-0.525,0.618-0.957,1.314-1.36,2.035c0.286-0.771,0.61-1.54,1.049-2.256
					c0.428-0.724,0.968-1.386,1.588-1.988c0.639-0.579,1.372-1.079,2.186-1.439c0.523-0.225,1.063-0.377,1.633-0.484
					c-0.317-0.591-0.633-1.182-0.949-1.773c-0.759-0.078-1.684,0.01-2.509,0.244c-0.886,0.244-1.738,0.642-2.526,1.163
					c-0.766,0.548-1.491,1.185-2.102,1.936c-0.628,0.739-1.139,1.573-1.616,2.435c0.36-0.913,0.764-1.82,1.307-2.66
					c0.526-0.851,1.192-1.618,1.941-2.314c0.771-0.67,1.652-1.236,2.618-1.642c0.683-0.28,1.369-0.488,2.119-0.597
					c-0.36-0.674-0.719-1.35-1.082-2.022c-0.92-0.065-1.96,0.014-2.923,0.239c-1.063,0.248-2.111,0.632-3.067,1.199
					c-0.948,0.57-1.872,1.235-2.631,2.075c-0.801,0.805-1.445,1.753-2.052,2.73c0.493-1.034,1.036-2.065,1.762-2.979
					c0.684-0.949,1.563-1.749,2.504-2.467c0.95-0.715,2.031-1.258,3.165-1.66c0.796-0.273,1.594-0.471,2.443-0.575
					c-0.364-0.666-0.737-1.326-1.107-1.987c-1.171-0.07-2.453,0.021-3.661,0.276c-1.322,0.27-2.615,0.721-3.818,1.359
					c-1.202,0.634-2.352,1.414-3.33,2.39c-1.024,0.934-1.845,2.067-2.621,3.231c0.665-1.226,1.388-2.447,2.345-3.495
					c0.91-1.089,2.023-2.006,3.223-2.787c1.202-0.785,2.529-1.389,3.915-1.808c1.025-0.308,2.05-0.526,3.133-0.626
					c-0.125-0.217-0.241-0.441-0.367-0.658c-0.364-0.638-0.742-1.267-1.119-1.897c-1.216-0.092-2.575,0.008-3.844,0.275
					c-1.322,0.27-2.615,0.721-3.818,1.359c-1.202,0.634-2.352,1.414-3.33,2.39c-1.024,0.934-1.845,2.067-2.621,3.231
					c0.665-1.226,1.388-2.447,2.345-3.495c0.91-1.089,2.023-2.006,3.223-2.787c1.202-0.785,2.529-1.389,3.915-1.808
					c1.053-0.316,2.106-0.54,3.223-0.636c-0.403-0.641-0.806-1.282-1.231-1.903c-0.097-0.144-0.21-0.271-0.309-0.413
					c-1.24-0.105-2.64,0.001-3.941,0.275c-1.321,0.27-2.615,0.721-3.818,1.359c-1.202,0.634-2.352,1.414-3.33,2.39
					c-1.024,0.934-1.845,2.067-2.62,3.231c0.665-1.226,1.388-2.447,2.345-3.495c0.91-1.089,2.023-2.006,3.223-2.787
					c1.202-0.785,2.529-1.389,3.915-1.808c1.025-0.308,2.05-0.526,3.133-0.626c-0.146-0.183-0.274-0.388-0.424-0.566
					c-0.667-0.714-1.355-1.511-2.137-1.676c-1.866-0.506-3.951-0.217-5.901,0.358c-1.983,0.54-3.88,1.421-5.713,2.423
					c1.651-1.293,3.504-2.327,5.476-3.128c1.98-0.738,4.172-1.225,6.408-0.79c0.263,0.015,0.602,0.183,0.896,0.297
					c0.246,0.159,0.522,0.309,0.743,0.487c0.454,0.351,0.839,0.745,1.221,1.137c0.727,0.805,1.394,1.642,2.015,2.503
					c1.241,1.724,2.331,3.526,3.398,5.336c2.082,3.65,3.983,7.384,5.713,11.196c1.738,3.807,3.386,7.653,4.8,11.595L155.62,187.35z"
					/>
			</g>
			<g>
				<path style="fill:#2A9ED1;" d="M160.903,140.556l24.644,10.07l-5.353,26.642c0,0-12.368,0.981-17.736,13.723
					c-3.627-9.93-8.874-19.46-8.874-19.46l4.161-29.165C157.958,140.879,159.513,139.988,160.903,140.556z"/>
				<path style="fill:#188EB7;" d="M187.584,150.626l16.798-3.299l-2.915,14.971c0,0-11.545,0.968-17.199,14.616l-4.072,0.355
					L187.584,150.626z"/>
				<path style="fill:#188EB7;" d="M162.005,139.946l24.56,10.085l17.434-3.086l-22.229-9.023c-0.948-0.385-1.971-0.547-2.991-0.476
					L162.005,139.946z"/>
				<g>
					<path style="fill:#70C9E8;" d="M197.187,145.945l0.027,0.006l0.947-3.975l-14.069-3.336l-1.004,4.105
						c-0.295,1.239,2.624,2.996,6.521,3.925s7.295,0.677,7.591-0.562C197.211,146.057,197.186,145.999,197.187,145.945z"/>
					
						<ellipse transform="matrix(0.2318 -0.9728 0.9728 0.2318 10.5309 293.6171)" style="fill:#98DBED;" cx="191.164" cy="140.141" rx="2.306" ry="7.253"/>
				</g>
			</g>
			<g>
				<path style="fill:#86C11F;" d="M130.518,201.616c2.917,1.555,5.643,2.765,8.086,3.71l-0.612-4.533
					c-2.472-2.772-5.053-5.801-7.474-8.879V201.616z"/>
				<path style="fill:#86C11F;" d="M139.623,207.331l-10.294,5.239c-0.11,0.056-0.229,0.083-0.345,0.083
					c-0.278,0-0.547-0.152-0.682-0.418c-0.191-0.376-0.042-0.835,0.335-1.027l9.051-4.607c-2.429-0.956-5.121-2.167-7.985-3.698
					l-10.15,2.898c-0.07,0.019-0.14,0.029-0.21,0.029c-0.332,0-0.638-0.218-0.734-0.554c-0.116-0.406,0.119-0.828,0.525-0.944
					l8.677-2.478c-2.455-1.401-5.013-3.036-7.62-4.942l-7.204,1.271c-0.045,0.008-0.089,0.012-0.133,0.012
					c-0.364,0-0.686-0.26-0.751-0.631c-0.074-0.415,0.204-0.811,0.619-0.884l5.798-1.024c-2.496-1.924-5.023-4.093-7.536-6.555
					c-0.301-0.295-0.306-0.778-0.01-1.08c0.295-0.301,0.778-0.306,1.08-0.01c2.421,2.372,4.854,4.468,7.257,6.33l-1.102-7.002
					c-0.065-0.416,0.219-0.808,0.636-0.873c0.417-0.062,0.807,0.219,0.873,0.636l1.347,8.561c2.719,1.991,5.384,3.686,7.927,5.117
					v-10.844c-0.935-1.237-1.837-2.473-2.682-3.697c-5.886-1.676-12.853-2.783-21.269-3.594
					c3.954,18.394,14.438,28.291,25.068,33.611c1.416-0.948,2.88-1.819,4.385-2.637c3.928-1.991,8.014-3.057,12.066-3.676
					c-0.218-0.222-0.454-0.465-0.688-0.705C144.209,208.827,142.091,208.221,139.623,207.331z"/>
				<path style="fill:#86C11F;" d="M143.814,207.103c-1.235-1.296-2.587-2.739-4.01-4.3l0.423,3.13
					C141.532,206.4,142.729,206.784,143.814,207.103z"/>
			</g>
		</g>
	</g>
</g>
</svg>
